<svg width="106" height="23" viewBox="0 0 106 23" fill="none" xmlns="http://www.w3.org/2000/svg">
<path d="M2.46569 15.72C0.881688 14.008 0.0896876 11.904 0.0896876 9.408C0.0896876 6.912 0.881688 4.816 2.46569 3.12C4.06569 1.408 6.08169 0.551999 8.51369 0.551999C10.9457 0.551999 12.9617 1.408 14.5617 3.12C16.1617 4.816 16.9617 6.912 16.9617 9.408C16.9617 10.88 16.6577 12.248 16.0497 13.512C15.4577 14.76 14.6337 15.792 13.5777 16.608C16.8577 18.592 19.3857 19.888 21.1617 20.496C23.2737 21.216 25.1777 21.576 26.8737 21.576C27.8497 21.576 28.9617 21.448 30.2097 21.192C31.4577 20.936 32.3537 20.672 32.8977 20.4L33.1857 21.072C32.5617 21.392 31.6017 21.704 30.3057 22.008C29.0257 22.312 27.8817 22.464 26.8737 22.464C25.8657 22.464 24.7937 22.336 23.6577 22.08C22.5377 21.84 21.5697 21.584 20.7537 21.312C19.9537 21.04 18.9537 20.608 17.7537 20.016C16.5537 19.424 15.6897 18.976 15.1617 18.672C14.6497 18.384 13.8097 17.904 12.6417 17.232C11.3777 17.936 10.0017 18.288 8.51369 18.288C6.08169 18.288 4.06569 17.432 2.46569 15.72ZM3.32969 3.864C2.00169 5.352 1.33769 7.2 1.33769 9.408C1.33769 11.616 2.00169 13.472 3.32969 14.976C4.67369 16.48 6.40169 17.232 8.51369 17.232C9.66569 17.232 10.7057 17 11.6337 16.536C9.63369 15.176 8.05769 14.496 6.90569 14.496C6.18569 14.496 5.60169 14.624 5.15369 14.88L4.76969 14.184C5.36169 13.784 6.08969 13.584 6.95369 13.584C7.81769 13.584 8.68169 13.792 9.54569 14.208C10.4257 14.624 11.4337 15.216 12.5697 15.984C13.5617 15.28 14.3297 14.352 14.8737 13.2C15.4337 12.048 15.7137 10.784 15.7137 9.408C15.7137 7.2 15.0417 5.352 13.6977 3.864C12.3697 2.36 10.6417 1.608 8.51369 1.608C6.38569 1.608 4.65769 2.36 3.32969 3.864Z" fill="#582566"/>
<path d="M28.2132 1.2C29.7492 1.2 31.0372 1.584 32.0772 2.352C33.1332 3.104 33.9172 4.12 34.4292 5.4C34.9572 6.664 35.2212 8.064 35.2212 9.6C35.2212 11.184 34.9572 12.608 34.4292 13.872C33.9172 15.136 33.1332 16.144 32.0772 16.896C31.0372 17.632 29.7492 18 28.2132 18H22.0932C21.8852 18 21.7092 17.936 21.5652 17.808C21.4372 17.664 21.3732 17.488 21.3732 17.28V1.92C21.3732 1.712 21.4372 1.544 21.5652 1.416C21.7092 1.272 21.8852 1.2 22.0932 1.2H28.2132ZM27.9732 16.584C29.8932 16.584 31.3252 15.944 32.2692 14.664C33.2132 13.368 33.6852 11.68 33.6852 9.6C33.6852 8.304 33.4852 7.136 33.0852 6.096C32.6852 5.04 32.0532 4.2 31.1892 3.576C30.3412 2.936 29.2692 2.616 27.9732 2.616H22.8852V16.584H27.9732ZM43.9992 5.448C44.3192 5.448 44.6072 5.512 44.8632 5.64C45.1192 5.768 45.2472 5.96 45.2472 6.216C45.2472 6.44 45.1832 6.624 45.0552 6.768C44.9272 6.896 44.7752 6.96 44.5992 6.96C44.5192 6.96 44.3592 6.92 44.1192 6.84C43.8952 6.76 43.6792 6.72 43.4712 6.72C42.8792 6.72 42.2872 6.952 41.6952 7.416C41.1192 7.864 40.6392 8.448 40.2552 9.168C39.8872 9.888 39.7032 10.616 39.7032 11.352V17.28C39.7032 17.488 39.6312 17.664 39.4872 17.808C39.3592 17.936 39.1912 18 38.9832 18C38.7752 18 38.5992 17.936 38.4552 17.808C38.3272 17.664 38.2632 17.488 38.2632 17.28V6.528C38.2632 6.32 38.3272 6.152 38.4552 6.024C38.5992 5.88 38.7752 5.808 38.9832 5.808C39.1912 5.808 39.3592 5.88 39.4872 6.024C39.6312 6.152 39.7032 6.32 39.7032 6.528V8.64C40.0712 7.728 40.6232 6.976 41.3592 6.384C42.1112 5.776 42.9912 5.464 43.9992 5.448ZM57.3265 11.16C57.3265 11.352 57.2545 11.52 57.1105 11.664C56.9665 11.792 56.7985 11.856 56.6065 11.856H47.5345C47.5345 12.816 47.7265 13.68 48.1105 14.448C48.5105 15.2 49.0705 15.8 49.7905 16.248C50.5265 16.68 51.3905 16.896 52.3825 16.896C53.1505 16.896 53.8385 16.736 54.4465 16.416C55.0545 16.096 55.5425 15.688 55.9105 15.192C56.0865 15.048 56.2545 14.976 56.4145 14.976C56.5745 14.976 56.7185 15.04 56.8465 15.168C56.9745 15.296 57.0385 15.44 57.0385 15.6C57.0385 15.776 56.9585 15.944 56.7985 16.104C56.2865 16.728 55.6385 17.24 54.8545 17.64C54.0865 18.04 53.2705 18.24 52.4065 18.24C51.1745 18.24 50.0865 17.976 49.1425 17.448C48.1985 16.92 47.4625 16.184 46.9345 15.24C46.4065 14.28 46.1425 13.176 46.1425 11.928C46.1425 10.616 46.3985 9.472 46.9105 8.496C47.4385 7.504 48.1345 6.752 48.9985 6.24C49.8625 5.712 50.7825 5.448 51.7585 5.448C52.7185 5.448 53.6145 5.672 54.4465 6.12C55.2945 6.568 55.9825 7.224 56.5105 8.088C57.0385 8.952 57.3105 9.976 57.3265 11.16ZM51.7585 6.84C50.8305 6.84 49.9665 7.16 49.1665 7.8C48.3825 8.44 47.8785 9.36 47.6545 10.56H55.8385V10.368C55.7585 9.648 55.5185 9.024 55.1185 8.496C54.7185 7.952 54.2145 7.544 53.6065 7.272C53.0145 6.984 52.3985 6.84 51.7585 6.84ZM70.3482 5.736C70.5562 5.736 70.7242 5.808 70.8522 5.952C70.9962 6.096 71.0682 6.272 71.0682 6.48V17.28C71.0682 17.488 70.9962 17.664 70.8522 17.808C70.7242 17.936 70.5562 18 70.3482 18C70.1402 18 69.9642 17.936 69.8202 17.808C69.6922 17.664 69.6282 17.488 69.6282 17.28V15.672C69.2282 16.392 68.6282 17 67.8282 17.496C67.0282 17.992 66.1562 18.24 65.2122 18.24C64.1402 18.24 63.1722 17.96 62.3082 17.4C61.4602 16.84 60.7882 16.072 60.2922 15.096C59.8122 14.12 59.5722 13.024 59.5722 11.808C59.5722 10.592 59.8202 9.504 60.3162 8.544C60.8122 7.568 61.4842 6.808 62.3322 6.264C63.1962 5.72 64.1482 5.448 65.1882 5.448C66.1482 5.448 67.0282 5.68 67.8282 6.144C68.6282 6.608 69.2282 7.216 69.6282 7.968V6.48C69.6282 6.272 69.6922 6.096 69.8202 5.952C69.9642 5.808 70.1402 5.736 70.3482 5.736ZM65.3562 16.896C66.1882 16.896 66.9322 16.68 67.5882 16.248C68.2602 15.8 68.7802 15.192 69.1482 14.424C69.5322 13.64 69.7242 12.768 69.7242 11.808C69.7242 10.88 69.5322 10.032 69.1482 9.264C68.7802 8.496 68.2602 7.896 67.5882 7.464C66.9322 7.016 66.1882 6.792 65.3562 6.792C64.5242 6.792 63.7722 7.008 63.1002 7.44C62.4442 7.872 61.9242 8.472 61.5402 9.24C61.1722 9.992 60.9882 10.848 60.9882 11.808C60.9882 12.768 61.1722 13.64 61.5402 14.424C61.9082 15.192 62.4202 15.8 63.0762 16.248C63.7482 16.68 64.5082 16.896 65.3562 16.896ZM88.7457 5.64C90.1857 5.64 91.2417 6.088 91.9137 6.984C92.6017 7.864 92.9457 9.032 92.9457 10.488V17.28C92.9457 17.488 92.8737 17.664 92.7297 17.808C92.6017 17.936 92.4337 18 92.2257 18C92.0177 18 91.8417 17.936 91.6977 17.808C91.5697 17.664 91.5057 17.488 91.5057 17.28V10.56C91.5057 9.504 91.2497 8.648 90.7377 7.992C90.2417 7.32 89.4657 6.984 88.4097 6.984C87.7377 6.984 87.0977 7.144 86.4897 7.464C85.8977 7.784 85.4177 8.224 85.0497 8.784C84.6817 9.328 84.4977 9.92 84.4977 10.56V17.28C84.4977 17.488 84.4257 17.664 84.2817 17.808C84.1537 17.936 83.9857 18 83.7777 18C83.5697 18 83.3937 17.936 83.2497 17.808C83.1217 17.664 83.0577 17.488 83.0577 17.28V10.488C83.0577 9.448 82.8177 8.608 82.3377 7.968C81.8577 7.312 81.1057 6.984 80.0817 6.984C79.4257 6.984 78.8017 7.144 78.2097 7.464C77.6337 7.784 77.1617 8.216 76.7937 8.76C76.4417 9.288 76.2657 9.864 76.2657 10.488V17.28C76.2657 17.488 76.1937 17.664 76.0497 17.808C75.9217 17.936 75.7537 18 75.5457 18C75.3377 18 75.1617 17.936 75.0177 17.808C74.8897 17.664 74.8257 17.488 74.8257 17.28V6.528C74.8257 6.32 74.8897 6.152 75.0177 6.024C75.1617 5.88 75.3377 5.808 75.5457 5.808C75.7537 5.808 75.9217 5.88 76.0497 6.024C76.1937 6.152 76.2657 6.32 76.2657 6.528V7.92C76.6977 7.264 77.2817 6.72 78.0177 6.288C78.7537 5.856 79.5297 5.64 80.3457 5.64C81.2737 5.64 82.0737 5.864 82.7457 6.312C83.4177 6.76 83.8977 7.416 84.1857 8.28C84.5217 7.576 85.1377 6.96 86.0337 6.432C86.9297 5.904 87.8337 5.64 88.7457 5.64ZM96.0203 16.056C95.8923 15.848 95.8283 15.672 95.8283 15.528C95.8283 15.32 95.9323 15.16 96.1403 15.048C96.2363 14.952 96.3643 14.904 96.5243 14.904C96.7163 14.904 96.8923 14.984 97.0523 15.144C97.9963 16.392 99.2523 17.016 100.82 17.016C101.588 17.016 102.252 16.84 102.812 16.488C103.388 16.12 103.676 15.592 103.676 14.904C103.676 14.232 103.412 13.728 102.884 13.392C102.356 13.056 101.62 12.768 100.676 12.528C99.3483 12.192 98.3083 11.76 97.5563 11.232C96.8043 10.688 96.4283 9.896 96.4283 8.856C96.4283 8.2 96.6123 7.616 96.9803 7.104C97.3483 6.576 97.8443 6.168 98.4683 5.88C99.1083 5.592 99.8283 5.448 100.628 5.448C101.316 5.448 102.004 5.584 102.692 5.856C103.396 6.112 103.996 6.528 104.492 7.104C104.636 7.216 104.708 7.376 104.708 7.584C104.708 7.776 104.628 7.944 104.468 8.088C104.356 8.184 104.212 8.232 104.036 8.232C103.876 8.232 103.732 8.168 103.604 8.04C103.22 7.608 102.764 7.28 102.236 7.056C101.708 6.832 101.14 6.72 100.532 6.72C99.7803 6.72 99.1323 6.896 98.5883 7.248C98.0603 7.6 97.7963 8.128 97.7963 8.832C97.8283 9.472 98.1163 9.96 98.6603 10.296C99.2203 10.632 100.036 10.936 101.108 11.208C101.94 11.416 102.628 11.648 103.172 11.904C103.716 12.16 104.156 12.52 104.492 12.984C104.844 13.448 105.02 14.064 105.02 14.832C105.02 15.872 104.604 16.704 103.772 17.328C102.94 17.936 101.908 18.24 100.676 18.24C98.7243 18.24 97.1723 17.512 96.0203 16.056Z" fill="#414141"/>
</svg>
